<svg width="252" height="24" viewBox="0 0 252 24" fill="none" xmlns="http://www.w3.org/2000/svg">
<g clip-path="url(#clip0_64_152)">
<path d="M213.692 1.02024C212.717 1.02024 211.925 1.81485 211.925 2.79158V22.5986C211.925 23.5752 212.717 24.3698 213.692 24.3698C214.666 24.3698 215.459 23.5752 215.459 22.5986V2.79158C215.459 1.81485 214.666 1.02024 213.692 1.02024Z" fill="white"/>
<path d="M198.814 1.02024H179.252C178.275 1.02024 177.479 1.81751 177.479 2.79748C177.479 3.77745 178.275 4.57483 179.252 4.57483H198.814C200.891 4.57483 202.58 6.26844 202.58 8.35006C202.58 10.4317 200.891 12.1253 198.814 12.1253H186.071C181.334 12.1253 177.479 15.9891 177.479 20.7384V22.5926C177.479 23.5725 178.275 24.3698 179.252 24.3698C180.23 24.3698 181.025 23.5725 181.025 22.5926V20.7102C181.041 17.9364 183.304 15.6797 186.071 15.6797H198.814C202.846 15.6797 206.126 12.3916 206.126 8.35006C206.126 4.3085 202.846 1.02024 198.814 1.02024Z" fill="white"/>
<path d="M164.518 1.02024H149.825C145.095 1.02024 141.246 4.87864 141.246 9.62121V15.7688C141.246 20.5114 145.095 24.3698 149.825 24.3698H164.518C169.249 24.3698 173.098 20.5114 173.098 15.7688V9.62121C173.098 4.87864 169.249 1.02024 164.518 1.02024ZM169.565 9.62121V15.7688C169.565 18.5579 167.301 20.8271 164.518 20.8271H149.825C147.043 20.8271 144.779 18.5579 144.779 15.7688V9.62121C144.779 6.83184 147.043 4.56256 149.825 4.56256H164.518C167.301 4.56256 169.565 6.83184 169.565 9.62121Z" fill="white"/>
<path d="M134.153 20.8264H133.629C132.631 20.8264 131.769 20.373 131.201 19.5496L128.534 15.6797H128.609C132.64 15.6797 135.92 12.3916 135.92 8.35006C135.92 4.3085 132.64 1.02024 128.609 1.02024H109.047C108.069 1.02024 107.274 1.81751 107.274 2.79748C107.274 3.77745 108.069 4.57483 109.047 4.57483H128.609C130.685 4.57483 132.374 6.26844 132.374 8.35006C132.374 10.4317 130.685 12.1253 128.609 12.1253H115.866C111.128 12.1253 107.274 15.9891 107.274 20.7384V22.5926C107.274 23.5725 108.069 24.3698 109.047 24.3698C110.024 24.3698 110.82 23.5725 110.82 22.5926V20.7102C110.835 17.9363 113.099 15.6797 115.866 15.6797H122.705C123.695 15.6846 124.551 16.1379 125.116 16.9561L128.292 21.5646C129.521 23.3481 131.466 24.371 133.629 24.371H134.153C135.127 24.371 135.92 23.5759 135.92 22.5986C135.92 21.6213 135.127 20.8264 134.153 20.8264Z" fill="white"/>
<path d="M100.891 1.02024H75.5024C74.5283 1.02024 73.7358 1.81485 73.7358 2.79158C73.7358 3.76832 74.5283 4.56256 75.5024 4.56256H86.4295V22.5988C86.4295 23.5753 87.2222 24.3698 88.1965 24.3698C89.1708 24.3698 89.9635 23.5753 89.9635 22.5988V4.56256H100.891C101.865 4.56256 102.657 3.76796 102.657 2.79122C102.657 1.8145 101.865 1.02024 100.891 1.02024Z" fill="white"/>
<path d="M68.3974 21.0235C68.1484 20.8939 67.8682 20.8254 67.5872 20.8254H67.0639C66.0657 20.8254 65.2034 20.3721 64.6362 19.5489L60.5891 13.677C60.3402 13.3211 60.059 12.9916 59.7513 12.6951C60.0585 12.3993 60.3397 12.0697 60.5899 11.7119L64.6362 5.84164C65.2034 5.01823 66.0657 4.56478 67.0639 4.56478H67.5872C67.8727 4.56478 68.1451 4.49815 68.3971 4.36684C68.9774 4.06522 69.3442 3.47388 69.355 2.82321L69.3555 2.81407V2.79175C69.3545 2.55134 69.3039 2.30859 69.2093 2.08841C68.9885 1.58165 68.5386 1.20125 68.0051 1.07074C67.8674 1.0373 67.727 1.02024 67.5872 1.02024H67.0639C64.9018 1.02024 62.9566 2.04306 61.7268 3.82655L57.7079 9.65889C57.2039 10.3898 56.4844 10.8243 55.6088 10.9185C55.5539 10.9159 55.5051 10.9141 55.4585 10.9128L55.456 11.0076L55.4562 10.9128L55.452 11.0955L55.4512 10.9128L55.4245 10.9131L49.839 10.9127L49.8297 11.252L49.8103 10.9133L49.6776 10.9185C48.8116 10.8296 48.0861 10.3943 47.5788 9.65889L43.5596 3.82668C42.3306 2.04313 40.3853 1.02024 38.2228 1.02024H37.6989C37.5597 1.02024 37.4192 1.03726 37.2813 1.07081C36.7483 1.2012 36.2987 1.58115 36.0777 2.08872C35.9828 2.30854 35.9322 2.5515 35.9312 2.81101L35.9324 2.84769C35.9518 3.48911 36.3171 4.06946 36.8893 4.36646C37.1375 4.49618 37.4175 4.56476 37.6989 4.56476H38.2228C39.221 4.56476 40.0832 5.0182 40.6507 5.84161L44.6978 11.7133C44.9468 12.0695 45.2282 12.399 45.5356 12.6951C45.2282 12.9915 44.947 13.3208 44.698 13.6769L40.6507 19.5489C40.0835 20.3721 39.2212 20.8254 38.2228 20.8254H37.6989C37.4182 20.8254 37.138 20.8939 36.8893 21.0235C36.311 21.3243 35.9447 21.9132 35.9319 22.5617L35.9312 22.5712V22.5986C35.9322 22.8417 35.9813 23.0778 36.0777 23.3022C36.2982 23.8085 36.7481 24.1888 37.281 24.3195C37.417 24.3529 37.5577 24.3698 37.6989 24.3698H38.2228C40.3853 24.3698 42.3306 23.3469 43.5594 21.5635L47.579 15.7318C48.0828 15.0006 48.8028 14.5658 49.6779 14.4717C49.7207 14.4739 49.766 14.4755 49.8272 14.4774L49.8367 14.155L49.8372 14.4775L55.3996 14.4767L55.4615 14.4774L55.4719 14.477C55.5272 14.4754 55.5698 14.4736 55.6098 14.4716C56.4758 14.5608 57.2011 14.9963 57.7079 15.7318L61.7268 21.5636C62.9566 23.347 64.9018 24.3698 67.0639 24.3698H67.5872C67.7287 24.3698 67.8694 24.3529 68.0054 24.3196C68.5386 24.1888 68.9882 23.809 69.2095 23.3015C69.3054 23.0785 69.3545 22.8422 69.3555 22.5796L69.3548 22.5517C69.3384 21.9072 68.9729 21.3229 68.3974 21.0235Z" fill="white"/>
<path d="M250.164 20.8444L230.126 20.8393C227.344 20.8393 225.08 18.5701 225.08 15.7809V9.63345C225.08 6.8441 227.344 4.5748 230.126 4.5748L230.54 4.56983H250.164C251.14 4.56983 251.935 3.77359 251.935 2.79504C251.935 1.81649 251.14 1.02024 250.164 1.02024H230.086C225.37 1.04235 221.534 4.9063 221.534 9.63348V15.781C221.534 20.5079 225.37 24.3717 230.088 24.394H250.164C251.14 24.394 251.935 23.5979 251.935 22.6192C251.935 21.6405 251.14 20.8444 250.164 20.8444Z" fill="white"/>
<path d="M1.76665 4.56256H28.6019C29.5759 4.56256 30.3686 3.76796 30.3686 2.79123C30.3686 1.8145 29.5759 1.02024 28.6019 1.02024H1.76665C0.792483 1.02024 0 1.81485 0 2.79158C0 3.76832 0.792483 4.56256 1.76665 4.56256Z" fill="white"/>
<path d="M28.6016 20.8271H1.76698C0.792695 20.8271 0 21.6217 0 22.5985C0 23.5754 0.792695 24.3697 1.76698 24.3697H28.6016C29.5759 24.3697 30.3686 23.5751 30.3686 22.5985C30.3686 21.6219 29.5759 20.8271 28.6016 20.8271Z" fill="white"/>
<path d="M1.76665 14.4662H15.6777C16.6518 14.4662 17.4443 13.6717 17.4443 12.6952C17.4443 11.7187 16.6518 10.9243 15.6777 10.9243H1.76665C0.792483 10.9243 0 11.7187 0 12.6952C0 13.6717 0.792483 14.4662 1.76665 14.4662Z" fill="white"/>
</g>
<defs>
<clipPath id="clip0_64_152">
<rect width="252" height="23.4656" fill="white"/>
</clipPath>
</defs>
</svg>
